<svg version="1.1" xmlns="http://www.w3.org/2000/svg" viewBox="0 0 46.66666666666663 49.33332655164932" width="46.66666666666663" height="49.33332655164932">
  <!-- svg-source:excalidraw -->
  
  <defs>
    <style class="style-fonts">
      @font-face {
        font-family: "Virgil";
        src: url("https://excalidraw.com/Virgil.woff2");
      }
      @font-face {
        font-family: "Cascadia";
        src: url("https://excalidraw.com/Cascadia.woff2");
      }
      @font-face {
        font-family: "Assistant";
        src: url("https://excalidraw.com/Assistant-Regular.woff2");
      }
    </style>
    
  </defs>
  <rect x="0" y="0" width="46.66666666666663" height="49.33332655164932" fill="#ffffff"></rect><g transform="translate(19.777798122829836 10) rotate(0 3.5555352105034785 14.66666327582466)" stroke="none"><path fill="#2f9e44" d="M 0.83,2.49 Q 0.83,2.49 0.07,2.78 -0.68,3.08 -2.06,3.58 -3.44,4.08 -4.21,4.91 -4.99,5.75 -5.83,6.69 -6.68,7.62 -6.52,8.86 -6.36,10.09 -6.34,11.38 -6.32,12.68 -6.29,14.01 -6.27,15.34 -6.26,16.67 -6.24,18.00 -5.93,19.32 -5.63,20.63 -5.38,21.74 -5.12,22.85 -4.09,23.81 -3.05,24.77 -2.02,25.76 -0.99,26.75 0.07,26.20 1.13,25.65 2.46,25.65 3.78,25.65 5.08,25.36 6.37,25.08 7.45,24.32 8.52,23.56 9.70,22.87 10.89,22.18 11.34,21.20 11.78,20.22 12.57,19.49 13.35,18.76 13.25,17.66 13.16,16.56 13.16,15.27 13.17,13.98 13.17,12.65 13.17,11.32 11.95,9.96 10.72,8.59 9.63,7.86 8.54,7.12 6.94,6.27 5.34,5.42 3.87,5.39 2.41,5.35 1.09,5.35 -0.23,5.36 -1.56,5.37 -2.89,5.38 -4.23,5.38 -5.56,5.39 -6.45,5.40 -7.34,5.40 -7.77,5.35 -8.21,5.30 -8.62,5.14 -9.03,4.99 -9.39,4.74 -9.75,4.49 -10.04,4.16 -10.33,3.84 -10.53,3.45 -10.73,3.06 -10.84,2.64 -10.94,2.21 -10.94,1.77 -10.94,1.33 -10.84,0.91 -10.73,0.49 -10.53,0.10 -10.33,-0.28 -10.04,-0.61 -9.75,-0.93 -9.39,-1.18 -9.02,-1.43 -8.62,-1.59 -8.21,-1.74 -7.77,-1.80 -7.34,-1.85 -4.03,-2.44 -0.73,-3.04 -0.23,-3.07 0.27,-3.11 0.76,-2.99 1.25,-2.86 1.67,-2.59 2.10,-2.31 2.41,-1.91 2.73,-1.52 2.90,-1.04 3.07,-0.57 3.08,-0.06 3.09,0.44 2.94,0.92 2.79,1.40 2.49,1.81 2.19,2.22 1.78,2.51 1.37,2.81 0.88,2.95 0.40,3.10 -0.10,3.08 -0.60,3.06 -1.08,2.89 -1.55,2.71 -1.94,2.39 -2.34,2.07 -2.61,1.64 -2.88,1.21 -3.00,0.72 -3.11,0.23 -3.07,-0.27 -3.03,-0.77 -2.82,-1.23 -2.62,-1.70 -2.28,-2.07 -1.94,-2.45 -1.50,-2.69 -1.06,-2.94 -0.56,-3.03 -0.06,-3.12 0.43,-3.05 0.93,-2.98 1.38,-2.75 1.84,-2.52 2.19,-2.16 2.55,-1.80 2.77,-1.35 2.99,-0.89 3.06,-0.39 3.12,0.10 3.02,0.60 2.92,1.09 2.67,1.53 2.42,1.97 2.04,2.31 1.66,2.64 1.20,2.84 0.73,3.04 0.73,3.04 0.73,3.04 -3.30,4.22 -7.34,5.40 -7.77,5.35 -8.21,5.30 -8.62,5.14 -9.02,4.99 -9.39,4.74 -9.75,4.49 -10.04,4.16 -10.33,3.84 -10.53,3.45 -10.73,3.06 -10.84,2.64 -10.94,2.21 -10.94,1.77 -10.94,1.34 -10.84,0.91 -10.73,0.49 -10.53,0.10 -10.33,-0.28 -10.04,-0.61 -9.75,-0.93 -9.39,-1.18 -9.03,-1.43 -8.62,-1.59 -8.21,-1.74 -7.77,-1.80 -7.34,-1.85 -6.45,-1.84 -5.56,-1.84 -4.23,-1.83 -2.89,-1.82 -1.55,-1.81 -0.21,-1.80 1.19,-1.78 2.61,-1.75 3.81,-1.69 5.01,-1.63 6.12,-1.49 7.23,-1.34 8.57,-0.70 9.90,-0.07 11.25,0.55 12.59,1.18 14.03,2.16 15.47,3.13 16.45,3.72 17.43,4.30 18.51,5.55 19.58,6.80 20.09,8.61 20.60,10.43 20.60,11.76 20.60,13.10 20.60,14.44 20.59,15.79 20.54,17.31 20.49,18.83 19.71,20.23 18.93,21.64 18.44,22.68 17.94,23.72 17.28,24.87 16.63,26.02 15.81,26.77 15.00,27.53 14.16,28.33 13.33,29.13 12.35,29.68 11.37,30.24 10.41,30.75 9.45,31.26 8.55,31.83 7.65,32.41 6.16,32.71 4.67,33.01 3.33,33.01 2.00,33.01 0.63,33.00 -0.73,32.98 -1.82,32.93 -2.91,32.87 -4.45,32.02 -5.99,31.18 -7.32,30.22 -8.64,29.25 -9.19,28.29 -9.74,27.32 -10.81,25.63 -11.88,23.94 -12.32,22.89 -12.75,21.83 -13.04,20.81 -13.33,19.78 -13.31,18.45 -13.30,17.12 -13.28,15.78 -13.26,14.45 -13.23,13.11 -13.21,11.77 -13.16,10.37 -13.12,8.98 -12.93,7.68 -12.73,6.39 -12.21,5.45 -11.69,4.51 -10.51,3.40 -9.32,2.28 -8.29,1.33 -7.25,0.38 -6.19,-0.37 -5.14,-1.12 -3.76,-1.59 -2.38,-2.05 -1.60,-2.27 -0.83,-2.49 -0.52,-2.55 -0.21,-2.62 0.10,-2.60 0.42,-2.59 0.72,-2.50 1.03,-2.41 1.30,-2.25 1.58,-2.10 1.80,-1.88 2.03,-1.66 2.20,-1.39 2.37,-1.12 2.47,-0.82 2.57,-0.52 2.60,-0.20 2.62,0.10 2.57,0.41 2.52,0.73 2.39,1.02 2.27,1.31 2.08,1.56 1.89,1.82 1.64,2.02 1.40,2.22 1.11,2.35 0.83,2.49 0.83,2.49 L 0.83,2.49 Z"></path></g></svg>