<svg version="1.1" xmlns="http://www.w3.org/2000/svg" viewBox="0 0 49.33332655164929 55.555538601345546" width="49.33332655164929" height="55.555538601345546">
  <!-- svg-source:excalidraw -->
  
  <defs>
    <style class="style-fonts">
      @font-face {
        font-family: "Virgil";
        src: url("https://excalidraw.com/Virgil.woff2");
      }
      @font-face {
        font-family: "Cascadia";
        src: url("https://excalidraw.com/Cascadia.woff2");
      }
      @font-face {
        font-family: "Assistant";
        src: url("https://excalidraw.com/Assistant-Regular.woff2");
      }
    </style>
    
  </defs>
  <rect x="0" y="0" width="49.33332655164929" height="55.555538601345546" fill="#ffffff"></rect><g transform="translate(10 10) rotate(0 14.666663275824646 17.777769300672773)" stroke="none"><path fill="#1971c2" d="M 0,-2.65 Q 0,-2.65 1.11,-2.65 2.23,-2.65 3.26,-2.27 4.29,-1.89 5.45,-1.04 6.62,-0.19 7.92,0.64 9.22,1.48 10.62,2.22 12.01,2.95 12.77,3.70 13.53,4.45 14.33,5.24 15.13,6.03 16.01,6.86 16.89,7.68 17.71,8.91 18.54,10.13 19.50,11.53 20.46,12.92 21.68,14.42 22.89,15.92 23.96,17.12 25.03,18.31 25.54,19.25 26.05,20.19 26.60,21.23 27.14,22.27 28.07,24.08 29.00,25.88 29.26,26.97 29.52,28.05 30.26,29.41 31.00,30.77 31.87,32.56 32.75,34.35 32.85,34.93 32.96,35.50 32.87,36.08 32.78,36.66 32.51,37.19 32.24,37.71 31.82,38.12 31.40,38.53 30.87,38.78 30.34,39.03 29.76,39.10 29.18,39.17 28.60,39.06 28.03,38.94 27.52,38.64 27.02,38.34 26.63,37.90 26.24,37.46 26.02,36.92 25.80,36.38 25.76,35.79 25.72,35.20 25.87,34.64 26.02,34.07 26.34,33.58 26.66,33.09 27.13,32.73 27.59,32.37 28.14,32.17 28.70,31.98 29.28,31.97 29.87,31.96 30.43,32.14 30.99,32.32 31.46,32.67 31.93,33.02 32.27,33.50 32.60,33.99 32.77,34.55 32.93,35.11 32.90,35.70 32.88,36.29 32.67,36.83 32.46,37.38 32.09,37.83 31.71,38.29 31.21,38.59 30.71,38.90 30.14,39.04 29.57,39.17 28.99,39.11 28.40,39.06 27.87,38.82 27.33,38.58 26.90,38.18 26.47,37.78 26.19,37.27 25.91,36.75 25.91,36.75 25.91,36.75 25.41,34.70 24.91,32.65 24.06,31.60 23.20,30.55 22.83,29.36 22.46,28.17 21.69,26.85 20.92,25.52 20.40,24.25 19.88,22.98 18.91,21.93 17.95,20.88 17.05,19.18 16.14,17.48 15.28,16.14 14.41,14.79 13.66,13.99 12.90,13.19 12.05,12.30 11.19,11.42 10.69,10.45 10.19,9.49 9.09,8.77 7.99,8.05 6.73,7.23 5.48,6.42 4.51,5.74 3.54,5.06 2.69,3.86 1.85,2.65 0.92,2.65 0,2.65 -0.31,2.61 -0.63,2.57 -0.93,2.46 -1.23,2.34 -1.49,2.16 -1.75,1.98 -1.96,1.74 -2.18,1.50 -2.33,1.22 -2.47,0.93 -2.55,0.62 -2.63,0.31 -2.63,-0.00 -2.63,-0.31 -2.55,-0.62 -2.47,-0.94 -2.33,-1.22 -2.18,-1.50 -1.96,-1.74 -1.75,-1.98 -1.49,-2.16 -1.23,-2.34 -0.93,-2.46 -0.63,-2.57 -0.31,-2.61 0.00,-2.65 0.00,-2.65 L 0,-2.65 Z"></path></g><g transform="translate(14.4444444444444 42.88887871636288) rotate(0 11.999986436631957 -16.44443935818144)" stroke="none"><path fill="#1971c2" d="M -2.65,0 Q -2.65,0 -2.65,-1.27 -2.66,-2.55 -2.72,-4.01 -2.77,-5.47 -2.42,-6.55 -2.06,-7.63 -1.64,-9.16 -1.21,-10.70 -0.39,-12.53 0.42,-14.35 1.19,-15.65 1.96,-16.96 2.82,-18.00 3.68,-19.04 4.31,-20.11 4.94,-21.18 5.83,-22.12 6.72,-23.05 7.60,-23.95 8.48,-24.86 9.37,-25.75 10.25,-26.65 11.50,-27.50 12.75,-28.36 14.16,-29.32 15.57,-30.28 16.37,-31.08 17.18,-31.89 18.05,-32.79 18.92,-33.69 20.84,-34.99 22.75,-36.29 23.33,-36.40 23.91,-36.50 24.49,-36.42 25.07,-36.34 25.59,-36.08 26.11,-35.82 26.53,-35.40 26.94,-34.99 27.20,-34.46 27.46,-33.94 27.54,-33.36 27.61,-32.78 27.50,-32.20 27.39,-31.63 27.10,-31.12 26.81,-30.61 26.38,-30.22 25.94,-29.83 25.40,-29.60 24.86,-29.37 24.28,-29.32 23.69,-29.28 23.12,-29.42 22.56,-29.56 22.06,-29.88 21.57,-30.19 21.20,-30.65 20.84,-31.11 20.64,-31.66 20.44,-32.21 20.42,-32.80 20.41,-33.38 20.58,-33.94 20.75,-34.50 21.10,-34.98 21.44,-35.45 21.92,-35.79 22.39,-36.13 22.95,-36.30 23.52,-36.47 24.10,-36.46 24.69,-36.44 25.24,-36.24 25.79,-36.03 26.24,-35.66 26.70,-35.30 27.01,-34.80 27.33,-34.31 27.47,-33.74 27.61,-33.17 27.56,-32.58 27.51,-32.00 27.27,-31.46 27.04,-30.93 26.65,-30.49 26.26,-30.06 25.75,-29.77 25.23,-29.48 25.24,-29.48 25.24,-29.48 24.58,-29.53 23.92,-29.59 23.02,-28.70 22.11,-27.82 21.15,-26.86 20.18,-25.89 18.84,-25.02 17.50,-24.16 16.30,-22.98 15.10,-21.80 14.20,-20.92 13.31,-20.04 12.42,-19.17 11.54,-18.30 10.72,-17.48 9.89,-16.65 8.83,-15.60 7.77,-14.54 7.10,-13.58 6.44,-12.61 5.91,-11.24 5.37,-9.86 4.56,-8.82 3.75,-7.78 3.26,-6.49 2.77,-5.20 2.72,-3.88 2.66,-2.55 2.65,-1.27 2.65,0 2.61,0.31 2.57,0.63 2.46,0.93 2.34,1.23 2.16,1.49 1.98,1.75 1.74,1.97 1.50,2.18 1.22,2.33 0.94,2.48 0.63,2.55 0.31,2.63 -0.00,2.63 -0.32,2.63 -0.63,2.55 -0.94,2.48 -1.22,2.33 -1.50,2.18 -1.74,1.97 -1.98,1.75 -2.16,1.49 -2.34,1.23 -2.46,0.93 -2.57,0.63 -2.61,0.31 -2.65,-0.00 -2.65,-0.00 L -2.65,0 Z"></path></g></svg>